<svg xmlns="http://www.w3.org/2000/svg" viewBox="0 0 1440 320">
<!--<rect width="1440" height="1000" x="0" y="0" fill="blue" ></rect>-->
<path fill="#3C91E6" fill-opacity="1" d="M0,160L40,154.7C80,149,160,139,240,154.7C320,171,400,213,480,192C560,171,640,85,720,74.7C800,64,880,128,960,165.3C1040,203,1120,213,1200,197.3C1280,181,1360,139,1400,117.3L1440,96L1440,0L1400,0C1360,0,1280,0,1200,0C1120,0,1040,0,960,0C880,0,800,0,720,0C640,0,560,0,480,0C400,0,320,0,240,0C160,0,80,0,40,0L0,0Z">
</path>
</svg>